<svg width="21" height="21" viewBox="0 0 21 21" fill="none" xmlns="http://www.w3.org/2000/svg">
<path d="M11.625 11.625C11.625 11.9217 11.537 12.2117 11.3722 12.4584C11.2074 12.705 10.9731 12.8973 10.699 13.0108C10.4249 13.1244 10.1233 13.1541 9.83237 13.0962C9.5414 13.0383 9.27412 12.8954 9.06434 12.6857C8.85457 12.4759 8.7117 12.2086 8.65383 11.9176C8.59595 11.6267 8.62565 11.3251 8.73919 11.051C8.85272 10.7769 9.04498 10.5426 9.29165 10.3778C9.53832 10.213 9.82833 10.125 10.125 10.125C10.5228 10.125 10.9044 10.283 11.1857 10.5643C11.467 10.8456 11.625 11.2272 11.625 11.625ZM20.25 10.125C20.25 12.1275 19.6562 14.0851 18.5436 15.7501C17.4311 17.4152 15.8498 18.7129 13.9997 19.4793C12.1496 20.2456 10.1138 20.4461 8.14971 20.0555C6.18566 19.6648 4.38156 18.7005 2.96555 17.2845C1.54954 15.8685 0.585229 14.0643 0.194554 12.1003C-0.196122 10.1362 0.00438702 8.10043 0.770724 6.25033C1.53706 4.40023 2.83481 2.81892 4.49986 1.70637C6.1649 0.593821 8.12247 0 10.125 0C12.8094 0.00297771 15.383 1.07067 17.2812 2.96883C19.1793 4.86699 20.247 7.4406 20.25 10.125ZM13.6453 12.75H17.5481C17.6222 12.5428 17.6878 12.3309 17.7441 12.1163C15.7106 10.1197 12.9747 9.00111 10.125 9.00111C7.27526 9.00111 4.53938 10.1197 2.50594 12.1163C2.56219 12.3313 2.6275 12.5425 2.70188 12.75H6.60469C6.98646 12.751 7.35889 12.8681 7.67252 13.0858C7.98615 13.3035 8.22614 13.6114 8.36063 13.9688L9.86625 17.9934C9.9525 17.9934 10.0378 18 10.125 18C10.2122 18 10.2956 18 10.38 17.9934L11.8894 13.9622C12.0251 13.6063 12.2656 13.2999 12.5791 13.0835C12.8926 12.867 13.2644 12.7508 13.6453 12.75ZM2.28844 9.34969C4.55248 7.66175 7.301 6.74993 10.125 6.74993C12.949 6.74993 15.6975 7.66175 17.9616 9.34969C17.7687 7.40519 16.8599 5.60182 15.4116 4.29005C13.9633 2.97828 12.079 2.25181 10.125 2.25181C8.17096 2.25181 6.28671 2.97828 4.83843 4.29005C3.39014 5.60182 2.48127 7.40519 2.28844 9.34969ZM7.26469 17.46L6.345 15H3.94688C4.81571 16.0991 5.9606 16.948 7.26469 17.46ZM16.3031 15H13.905L12.9825 17.4609C14.288 16.9495 15.434 16.1002 16.3031 15Z" fill="#191515"/>
</svg>
